<svg width="64" height="64" viewBox="0 0 64 64" xmlns="http://www.w3.org/2000/svg"><title>qrcode_for_gh_313e680127fe_1280</title><g fill="none" fill-rule="evenodd"><g fill-rule="nonzero"><path d="M31.965 39.638c-2.027 0-4.054.006-6.081 0-.655 0-1.066-.393-1.384-.926-.163-.271-.174-.555-.174-.856.006-3.894.011-7.795-.006-11.689-.006-.839.562-1.516 1.309-1.77.104-.035.226-.035.342-.035 4.025 0 8.05-.006 12.076.005.643 0 1.077.37 1.407.903.162.26.168.521.168.799 0 3.952-.012 7.91.012 11.862.005.85-.603 1.418-1.188 1.678-.11.047-.249.03-.37.03-2.033 0-4.072-.006-6.11 0zm1.634-4.843v1.591c0 .527 0 .527.515.527h.608c.724 0 .718 0 .73-.735.023-1.389-.046-2.772-.058-4.16-.006-.348.075-.423.429-.429.22-.006.446 0 .666-.006.098 0 .214-.017.22-.139.011-.289.087-.572.052-.862-.023-.18-.11-.272-.307-.266-.243.006-.48 0-.724 0-.203 0-.33-.092-.336-.312 0-.336-.023-.677.006-1.013.058-.666.394-.914 1.048-.816a.557.557 0 0 1 .168.046c.122.052.209.012.255-.104.081-.214.162-.434.226-.654.064-.214-.03-.324-.25-.399-.474-.168-.96-.19-1.453-.162-.486.029-.927.185-1.268.544-.348.359-.464.833-.522 1.308-.04.341-.005.694-.005 1.041 0 .498 0 .51-.504.527-.267.011-.388.121-.365.393.011.174.011.348 0 .521-.018.255.07.388.341.359.058-.006.116.006.174 0 .26-.029.37.11.388.347.012.127.023.249.018.376-.058.822-.052 1.65-.052 2.477zm-4.304 2.297c.521.064 1.095-.11 1.634-.376.538-.266.77-.758.897-1.337.104-.463-.006-.89-.208-1.267-.232-.44-.684-.648-1.124-.856-.428-.203-.886-.313-1.309-.515a.823.823 0 0 1-.486-.672c-.024-.22.237-.572.451-.625a2.645 2.645 0 0 1 1.344.024c.232.07.48.33.672.225.185-.098.26-.405.376-.63.14-.272.099-.36-.168-.504-.33-.18-.689-.243-1.042-.318-.8-.174-1.57-.104-2.311.249-.637.3-.99.792-1.02 1.516-.028.781.261 1.348.95 1.736.464.26.962.434 1.454.636.597.243.811.66.55 1.175-.156.307-.451.393-.764.446-.504.08-.944-.122-1.384-.324-.18-.082-.313-.382-.533-.238-.162.104-.243.342-.348.521-.127.214-.104.382.128.538.643.428 1.367.608 2.241.596z" fill="#009A61"/><g fill="#000"><path d="M63.954 57.23c0-.25-.105-.348-.348-.348-.365.006-.735-.005-1.1 0-.209.006-.296-.075-.29-.289.012-.359-.006-.712.006-1.07.011-.255-.099-.348-.342-.336-.347.012-.695-.012-1.042.006-.261.011-.371-.064-.354-.342a7.946 7.946 0 0 0 0-.926c-.017-.271.093-.347.354-.347.926.012 1.853 0 2.78.006.22 0 .341-.058.341-.307-.005-.983-.005-1.967 0-2.95 0-.255-.121-.342-.353-.336-.359.005-.712-.006-1.071 0-.22.005-.319-.07-.313-.301a13.12 13.12 0 0 0 0-.955c-.012-.243.093-.318.324-.313.365.012.736 0 1.1.006.22.006.313-.092.313-.312a640.032 640.032 0 0 1 0-4.716c0-.209-.092-.301-.3-.295-.348.005-.696 0-1.043 0-.522 0-.522 0-.522.509 0 1.458-.005 2.91 0 4.369 0 .237-.069.335-.312.318-.244-.017-.481 0-.724 0-1.784 0-3.574-.006-5.358.006-.295 0-.4-.087-.376-.382.023-.266.006-.538.006-.81 0-.417 0-.417.417-.417h4.343c.383 0 .4-.017.4-.388v-1.04c0-.423-.006-.434-.446-.434-1.46 0-2.913-.006-4.373.006-.266 0-.359-.087-.347-.353.017-.36 0-.712.006-1.071.005-.22-.087-.318-.313-.312-.377.005-.753-.006-1.13 0-.202.005-.3-.064-.295-.284.006-.914.006-1.834 0-2.749 0-.18.058-.266.25-.266.364.006.735.006 1.1 0 .185-.006.26.081.254.26-.005.307 0 .62 0 .926 0 .544 0 .544.562.544.278 0 .562.006.84 0 .209-.005.301.076.295.29-.005.364 0 .735 0 1.1-.005.242.11.346.354.346a285.19 285.19 0 0 1 2.925 0c.237 0 .324-.104.324-.335-.006-.36 0-.712 0-1.07 0-.458-.006-.458-.446-.458-.886 0-1.778-.006-2.664.006-.238 0-.33-.081-.319-.318.012-.243 0-.48 0-.724 0-.613-.046-.561.562-.561h5.937c.353 0 .393-.035.393-.376 0-.955-.005-1.91.006-2.865 0-.26-.098-.364-.359-.358-.365.011-.735 0-1.1.005-.191.006-.284-.069-.278-.272a34.14 34.14 0 0 0 0-1.012c-.006-.203.075-.284.278-.284.388.006.77 0 1.158 0 .209 0 .295-.092.295-.295V29.61c0-.19-.086-.283-.278-.283-.422 0-.851.005-1.274 0-.226-.006-.313.098-.307.318.006.388-.006.77 0 1.157 0 .185-.075.26-.26.26a33.07 33.07 0 0 0-1.072 0c-.197.006-.278-.069-.278-.271.006-.915.006-1.835 0-2.749 0-.22.099-.284.301-.278.307.006.62 0 .927 0 .51 0 .51 0 .51-.52 0-.307.005-.62-.006-.926-.006-.215.081-.296.29-.29.335.012.677.006 1.013 0 .405 0 .429-.023.434-.422V14.235c0-.388-.029-.417-.405-.417h-2.809c-.342 0-.376.041-.376.388 0 .359-.006.712 0 1.07.005.197-.076.278-.273.273-.33-.006-.654-.012-.984 0-.22.005-.313-.076-.307-.301.011-.359 0-.712.005-1.07.006-.238-.086-.36-.341-.36h-4.692c-.226 0-.307.11-.3.324.005.377 0 .753 0 1.129 0 .393.017.41.405.41h2.606c.411 0 .411 0 .411.423v.781c0 .394-.006.4-.411.4h-4.344c-.388 0-.405.017-.405.41v1.042c0 .376.029.405.417.405.897 0 1.795.012 2.693-.006.284-.005.376.099.359.37a7.41 7.41 0 0 0 0 .869c.012.254-.087.335-.336.335-.886-.011-1.778-.005-2.664-.005-.423 0-.47.046-.47.462 0 .886-.005 1.777.006 2.662.006.266-.092.36-.353.347-.33-.017-.654-.005-.984-.005-.348 0-.394.046-.4.405-.006.318-.017.636.006.955.023.3-.105.387-.388.376-.336-.018-.678 0-1.014-.006-.203-.006-.301.075-.301.29.006.422.006.85 0 1.272-.006.226.098.307.313.307.347-.006.695.006 1.042-.006.243-.011.353.075.342.33-.017.3-.012.596 0 .897.011.249-.075.353-.33.341-.348-.017-.695 0-1.043-.005-.214-.006-.324.075-.324.3.006 1.002.006 2.008 0 3.01 0 .214.104.283.307.283.405-.006.81-.012 1.216 0 .243.006.353-.087.348-.341-.012-.365.005-.735-.006-1.1-.006-.202.064-.3.284-.295.336.012.677.006 1.013 0 .203-.006.272.081.272.278-.005.376.006.752 0 1.128-.005.232.093.336.33.33.365-.006.736.006 1.101-.006.22-.006.319.064.313.295a13.12 13.12 0 0 0 0 .955c.011.243-.093.324-.325.313-.33-.012-.654-.006-.984 0-.37.005-.423.058-.423.416 0 .348-.006.695 0 1.042.006.197-.081.278-.278.272a29.592 29.592 0 0 0-1.014 0c-.196.006-.278-.081-.272-.278.006-.359-.006-.712.006-1.07.006-.255-.093-.382-.353-.382h-4.663c-.231 0-.324.115-.318.341.006.347-.012.694.006 1.042.011.266-.087.353-.348.353-.886-.012-1.778-.006-2.664-.006-.388 0-.411.029-.417.41-.012.944-.018 1.887-.035 2.83-.006.26.098.37.36.36.358-.012.711.005 1.07-.007.232-.005.313.087.302.307-.012.29 0 .579 0 .868 0 .428 0 .428-.435.428-1.998-.011-3.996-.029-5.994-.046-.452-.006-.464.012-.464.474v2.691c0 .174-.023.307-.243.307-.938-.006-1.87 0-2.809 0-.168 0-.249-.07-.243-.243.006-.336.006-.677 0-1.013-.006-.22.075-.318.301-.306.348.011.695.005 1.043 0 .33-.006.388-.064.388-.394.005-.463.005-.926.005-1.389 0-.168.053-.283.255-.26.863.087 1.732.011 2.595.017 1.24.012 2.137-.538 2.682-1.649.023-.052.063-.104.011-.156-.058-.058-.127-.04-.185 0-.093.07-.174.15-.267.225-.561.458-1.158.787-1.922.776-1.31-.029-2.624-.012-3.933-.058a33.603 33.603 0 0 0-3.498.052c-.626.04-1.251-.087-1.877-.064a36.15 36.15 0 0 1-1.94 0c-.423-.011-.84.035-1.274-.133-.33-.127-.58-.347-.875-.503-.237-.127-.313-.4-.463-.608a1.798 1.798 0 0 1-.365-1.053c-.012-1.637-.006-3.28-.006-4.918 0-.22-.035-.365-.313-.37-.759-.018-.759-.03-.724-.805 0-.018 0-.04.006-.058.04-.7.04-.7.736-.735.208-.011.3-.087.295-.295a44.543 44.543 0 0 1 0-1.244c.006-.232-.093-.33-.33-.33-.736.006-1.465.006-2.201 0-.278 0-.382.122-.377.388.006.347-.005.694.006 1.041.006.22-.07.319-.3.313-.262-.012-.522 0-.783 0-.48 0-.48 0-.48-.469v-4.282c0-.388-.018-.405-.412-.405-.91 0-1.813-.006-2.722.006-.255 0-.347-.093-.336-.342a9.533 9.533 0 0 0 0-.926c-.017-.272.104-.353.36-.347.358.012.712-.006 1.07.006.227.006.313-.093.308-.312-.006-.388 0-.77-.006-1.158 0-.18.064-.266.255-.26.359.006.712.006 1.071 0 .22-.006.284.098.284.3-.006.307 0 .62 0 .927 0 .503 0 .503.487.503h.81c.388 0 .394.006.394.382 0 .908.006 1.811 0 2.72 0 .254.081.376.354.364.393-.011.793-.011 1.187 0 .232.006.33-.092.33-.324 0-.955.023-1.91.012-2.864 0-.232.075-.284.278-.278.422.006.851 0 1.274 0a.59.59 0 0 0 .347-.098c.36-.243.736-.51 1.165-.562.376-.046.41-.225.388-.515-.012-.127-.006-.248 0-.376.011-.22-.093-.312-.313-.312-.377.006-.753-.006-1.13.006-.208.005-.3-.07-.295-.284.012-.33.012-.654 0-.984-.012-.231.098-.3.313-.295.365.012.735-.006 1.1.006.238.006.33-.098.325-.33-.006-.376.005-.752-.006-1.128-.006-.197.075-.284.272-.278.301.006.597 0 .898 0 .382 0 .394.011.394.388 0 .885.005 1.776 0 2.661 0 .267.086.4.37.377.203-.012.406 0 .608 0 .73 0 .736 0 .76.711.005.232.098.33.335.324.394-.005.794-.011 1.187 0 .273.012.354-.104.348-.358-.012-.695 0-1.39-.006-2.084 0-.208.075-.295.29-.289.365.012.735-.006 1.1.006.243.006.353-.087.348-.342-.012-.364 0-.734 0-1.099 0-.417-.012-.428-.417-.428h-4.257c-.481 0-.481 0-.481-.469v-2.575c0-.388-.03-.417-.406-.417-.335 0-.677-.011-1.013.006-.243.012-.324-.087-.319-.324a13.12 13.12 0 0 0 0-.955c-.005-.214.081-.289.296-.289.91.006 1.813.006 2.722 0 .214 0 .29.093.284.295-.006.33-.006.654 0 .984 0 .382.029.41.41.41.899 0 1.796.012 2.694-.005.278-.006.377.098.365.37-.017.36 0 .712-.006 1.07-.006.21.081.302.296.296.365-.006.735.006 1.1-.006.226-.006.307.087.301.307-.011.364 0 .735 0 1.1 0 .225.099.335.336.33.406-.007.811-.012 1.216 0 .273.005.36-.122.354-.371-.006-.336.011-.677-.006-1.013-.017-.283.098-.376.37-.359.29.018.58.006.87.006.457 0 .457-.006.457-.445 0-.33.006-.654 0-.984-.006-.226.093-.307.313-.301a14.8 14.8 0 0 0 1.013 0c.215-.006.284.087.284.295-.006.914-.006 1.834 0 2.749 0 .237-.093.3-.313.295a20.11 20.11 0 0 0-1.042 0c-.353 0-.382.029-.382.376v2.749c0 .422.005.428.446.428.897 0 1.795.006 2.693 0 .231 0 .336.07.33.312-.012.33-.012.654 0 .984.011.249-.099.318-.33.312-.388-.011-.77-.011-1.159 0-.243.006-.278.093-.144.301.22.353.422.712.567 1.1.162.451.168.451.643.451h.145c.37-.006.4-.035.405-.393 0-.36.006-.712 0-1.07-.005-.203.081-.279.278-.273.336.006.678.006 1.014 0 .197-.006.278.081.272.278-.006.914-.006 1.834 0 2.749 0 .196-.087.277-.278.272-.359-.006-.712.005-1.071-.006-.267-.012-.377.116-.365.364.04.973.017 1.95.011 2.923 0 .214.081.318.307.312.394-.011.794 0 1.188 0 .341 0 .376-.04.376-.388v-2.633c0-.393.006-.399.411-.399H46.4c.214 0 .353-.046.353-.3a260.548 260.548 0 0 1 0-3.01c0-.214-.104-.29-.301-.283-.348.005-.695 0-1.043 0-.382 0-.388 0-.388-.388 0-1.464-.006-2.934.006-4.398 0-.272-.081-.388-.365-.376-.36.017-.712 0-1.071.006-.18 0-.267-.07-.261-.255a32.98 32.98 0 0 0 0-1.07c-.006-.197.075-.278.272-.278.377.006.753-.006 1.13 0 .208.006.295-.087.295-.295-.006-.376.006-.752-.006-1.129-.006-.22.075-.312.301-.312.91.006 1.813.006 2.722 0 .215 0 .319.07.313.3-.006.915-.006 1.835 0 2.75 0 .214-.092.289-.295.289-.377-.006-.753.006-1.13-.006-.225-.006-.307.087-.307.313.006.972.006 1.95 0 2.922 0 .231.082.335.319.33.376-.012.753 0 1.13 0 .393 0 .41-.018.41-.405 0-.897.006-1.794-.005-2.691-.006-.255.087-.342.336-.33.359.017.712 0 1.071.006.232.005.33-.087.33-.324-.005-.984-.005-1.968 0-2.952 0-.243-.11-.324-.336-.318-.364.006-.735-.006-1.1.006-.226.006-.307-.087-.301-.307.011-.358-.006-.711.006-1.07.005-.26-.093-.365-.36-.359-.967.006-1.928.006-2.895 0-.267 0-.36.11-.354.365.012.358-.005.711.006 1.07.006.226-.087.307-.307.301-.33-.012-.654-.006-.984 0-.197.006-.279-.081-.273-.278a558.51 558.51 0 0 0 0-4.484c0-.203.087-.272.284-.267.336.006.678.006 1.014 0 .202-.005.272.081.272.278-.006.388 0 .77 0 1.158 0 .202.087.3.295.3.417-.005.828-.005 1.246 0 .237.006.33-.104.324-.335-.006-.376.006-.752-.006-1.129-.006-.196.075-.277.272-.272.348.006.695.012 1.043 0 .208-.005.295.07.29.284-.012.388 0 .77-.006 1.157-.006.209.086.295.295.295a51.67 51.67 0 0 1 1.245 0c.238.006.33-.098.325-.33-.006-.376 0-.752 0-1.128V4.074c0-.55 0-.55-.568-.55-.272 0-.544-.017-.81.006-.285.017-.366-.093-.366-.365.012-.914 0-1.834.006-2.748 0-.238-.075-.36-.33-.353-.985.005-1.97.005-2.954 0-.22 0-.318.086-.318.312.005.417.005.828 0 1.244-.006.226.098.313.318.307.36-.006.712.012 1.072-.006.26-.011.353.081.353.347-.012.857-.006 1.719-.006 2.575 0 .365-.012.377-.37.377H43.6c-.417 0-.457.046-.457.468 0 .307-.012.62 0 .926.011.249-.076.342-.33.342-1.46-.006-2.914-.012-4.373 0-.255 0-.336-.093-.33-.342.011-.85.005-1.695.005-2.546 0-.41 0-.41.417-.41 1.466 0 2.937-.007 4.402.005.278 0 .388-.104.376-.376-.011-.388-.005-.77 0-1.158.006-.231-.086-.335-.324-.335-1.564.006-3.127.006-4.691 0-.244 0-.325.11-.319.335.006.365-.006.735.006 1.1.006.202-.058.307-.278.3a14.799 14.799 0 0 0-1.014 0c-.202.007-.278-.08-.272-.277.006-.388 0-.77 0-1.157 0-.203-.087-.301-.295-.301-1.002 0-2.01.006-3.012 0-.214 0-.295.092-.29.295.006.388-.005.77 0 1.157 0 .197-.08.284-.278.278a19.73 19.73 0 0 0-1.013 0c-.243.012-.324-.098-.319-.33.012-.364-.005-.735.006-1.1.006-.225-.087-.312-.313-.306-.347.006-.695-.012-1.042.006-.272.011-.353-.099-.348-.359.012-.359 0-.712 0-1.07 0-.215-.098-.313-.318-.313-.417.006-.828.006-1.246 0-.231-.006-.335.098-.335.324.005.405.005.81 0 1.215-.006.238.104.33.335.324.377-.005.753.006 1.13-.005.197-.006.278.08.272.277-.006.348-.011.695 0 1.042.006.214-.075.295-.29.29-.376-.012-.752 0-1.129-.007-.22-.005-.318.087-.318.307.005.405.005.81 0 1.215 0 .25.121.342.359.342.388-.006.77 0 1.158 0 .324-.006.382-.064.388-.4.006-.347.006-.694 0-1.041-.006-.208.075-.301.29-.295.318.011.637.011.955 0 .232-.012.336.07.325.312-.012.359.005.712-.006 1.07-.012.267.104.36.365.354.388-.012.77-.012 1.158 0 .243.006.353-.087.348-.342-.012-.347.011-.694-.006-1.041-.018-.284.098-.365.37-.359.858.012 1.72.012 2.578 0 .284-.006.365.104.359.37-.012.909 0 1.812-.006 2.72 0 .272.11.388.382.382.336-.012.678.012 1.014-.006.272-.011.36.099.348.359-.018.347 0 .694-.006 1.042 0 .208.092.306.295.295.087-.006.174 0 .26 0 1.42 0 2.839.005 4.258-.006.266 0 .359.087.347.353-.017.33-.011.654 0 .984.006.196-.08.277-.278.272-.365-.006-.735.005-1.1-.006-.272-.006-.353.115-.336.37.017.336.012.671.017 1.007.006.214-.087.318-.312.312-.33-.005-.655-.011-.985 0-.22.006-.313-.075-.307-.3.012-.365 0-.735.006-1.1.006-.208-.087-.295-.296-.29-.422.007-.851.007-1.274 0-.208-.005-.301.082-.295.29.006.365-.006.735.006 1.1.005.225-.087.312-.307.3-.29-.011-.58 0-.87 0-.37 0-.387-.017-.387-.393V9.085c0-.376-.047-.422-.411-.422-.336 0-.678-.012-1.014 0-.22.005-.319-.07-.307-.301.012-.36-.006-.712.006-1.07.011-.279-.11-.377-.377-.371-.376.011-.753.011-1.13 0-.254-.006-.37.087-.364.353.012.364 0 .735.006 1.1.006.19-.058.289-.267.283a33.07 33.07 0 0 0-1.071 0c-.203.006-.272-.081-.272-.278.005-.376-.006-.752.005-1.128.006-.232-.092-.33-.324-.33-.973.006-1.952.006-2.925 0-.249 0-.353.104-.347.347.006.365-.006.735 0 1.1.006.208-.076.295-.29.295-.365-.012-.735.005-1.1-.006-.226-.006-.313.087-.307.312.006.388 0 .77 0 1.158 0 .173-.052.272-.25.266a34.881 34.881 0 0 0-1.1 0c-.185.006-.26-.075-.255-.26.006-.365 0-.736 0-1.1 0-.353-.023-.37-.382-.37s-.712-.006-1.071 0c-.197.005-.278-.07-.278-.272.005-.319 0-.637 0-.955 0-.51 0-.51-.522-.51-2.01 0-4.013-.005-6.023.006-.26 0-.365-.075-.353-.347.017-.359 0-.712.005-1.07.006-.214-.08-.324-.307-.319-.405.006-.81.006-1.216 0-.249 0-.342.116-.342.36v6.393c0 .226.099.313.319.307.417-.006.828-.006 1.245 0 .226.006.307-.098.307-.312-.006-.365.006-.735-.006-1.1-.005-.231.07-.336.313-.324.307.017.62.023.927 0 .3-.023.376.104.37.388-.017.914 0 1.834-.005 2.748 0 .226.075.342.318.336.406-.006.811-.006 1.216 0 .226 0 .336-.093.33-.33-.005-.984-.005-1.967 0-2.951 0-.249-.11-.318-.335-.312-.377.011-.753-.006-1.13.005-.197.006-.278-.075-.272-.272a32.98 32.98 0 0 0 0-1.07c-.006-.18.064-.26.255-.26 1.506.005 3.012.005 4.518 0 .185 0 .266.069.26.254-.006.359-.011.712 0 1.07.006.22-.098.284-.301.278-.36-.011-.712.006-1.071-.005-.255-.006-.377.08-.365.347a27 27 0 0 1 0 1.186c-.006.231.087.336.324.33.405-.006.81-.012 1.216 0 .232.006.336-.081.33-.324-.011-.388 0-.77-.005-1.158 0-.185.075-.26.26-.254.36.006.713.006 1.072 0 .197-.006.278.075.272.272-.006.347 0 .694 0 1.041 0 .388.029.417.405.417.336 0 .678.012 1.014 0 .243-.012.324.087.313.324-.012.272-.006.538-.006.81 0 .428 0 .428-.434.428h-4.344c-.365 0-.417.058-.423.423v1.041c0 .365.04.4.4.4.915 0 1.835.006 2.75 0 .238 0 .33.075.32.318-.012.365.005.735-.007 1.1-.005.237.093.324.33.318.365-.012.736.006 1.101-.006.22-.006.319.064.307.295-.012.33-.012.654 0 .984.006.231-.075.335-.319.324-.33-.012-.654-.006-.984 0-.423 0-.429.011-.435.445v.84c0 .405-.005.41-.4.41h-2.664c-.347 0-.4.058-.405.411-.006.33-.012.654 0 .984.012.243-.07.359-.33.341a9.9 9.9 0 0 0-.927 0c-.243.012-.324-.092-.313-.324.012-.364 0-.735.006-1.1.006-.22-.098-.312-.313-.312-.405.006-.81.012-1.216 0-.255-.005-.342.11-.336.353.012.36-.006.712.006 1.07.012.244-.093.325-.324.313-.278-.011-.562 0-.84-.005-.446 0-.446 0-.446-.446 0-1.447-.006-2.893.006-4.34 0-.278-.093-.382-.371-.37-.394.017-.793.005-1.187 0-.22-.006-.319.092-.313.312.006.376-.006.752 0 1.128.006.209-.07.301-.284.296-.33-.012-.654-.012-.984 0-.232.011-.302-.093-.296-.313.012-.347.006-.694 0-1.041 0-.353-.023-.377-.382-.377-.91 0-1.813-.011-2.722.006-.273.006-.388-.07-.371-.359.017-.353 0-.711.006-1.07.006-.22-.081-.318-.307-.313-.365.006-.736-.005-1.1.006-.215.006-.296-.087-.29-.295.006-.359 0-.712 0-1.07 0-.243-.099-.377-.365-.37-.394.01-.794.005-1.187 0-.244-.007-.354.103-.354.346.006.336 0 .677 0 1.013 0 .359-.011.37-.376.37-.898 0-1.796.006-2.693 0-.261 0-.365.099-.36.36.012.346-.005.694.006 1.04.012.25-.07.354-.33.342-.33-.017-.654-.006-.984-.006-.412 0-.423.012-.423.423v6.336c0 1.117.006 2.24-.006 3.356 0 .278.098.382.376.37.36-.01.713.007 1.072-.005.208-.006.295.07.295.284-.005.908-.005 1.81 0 2.72 0 .236-.098.3-.312.294-.36-.011-.713.006-1.072-.005-.266-.012-.353.104-.353.358.006 2.674 0 5.341.006 8.015 0 .335.04.37.393.376.36 0 .713.006 1.072 0 .203-.006.278.08.272.278-.006.335-.011.677 0 1.012.012.243-.098.324-.33.319-.365-.012-.736 0-1.1-.012-.22-.006-.319.087-.313.313.011.405.011.81 0 1.215-.006.249.11.347.347.347.377-.006.753.006 1.13 0 .185 0 .26.075.26.26-.005.336-.005.677 0 1.013.006.208-.075.295-.29.29-.364-.012-.735.005-1.1-.006-.243-.006-.359.08-.353.335.012.405.012.81 0 1.215-.006.243.104.324.33.319.365-.012.736.005 1.1-.006.22-.006.32.07.308.3-.012.336-.012.678 0 1.013.011.238-.093.301-.313.295-.377-.011-.753 0-1.13-.005-.208-.006-.3.08-.295.289.006.417.006.828 0 1.244-.006.232.093.33.324.33.985-.006 1.97-.006 2.954 0 .243 0 .324-.11.319-.336-.006-.364.005-.735-.006-1.1-.006-.202.058-.306.278-.3.336.012.678.006 1.013 0 .203-.006.279.087.273.278-.006.364.006.735 0 1.1 0 .236.098.358.341.358.417-.006.829-.006 1.246 0 .243.006.324-.116.318-.336-.006-.358.006-.711-.006-1.07-.005-.232.07-.336.313-.33.319.012.637.012.956 0 .232-.012.307.093.295.312-.011.365.006.735-.006 1.1-.005.237.099.33.33.324.974-.006 1.952-.006 2.925 0 .244 0 .354-.093.348-.341-.012-.377 0-.753 0-1.129 0-.18.064-.266.255-.266 1.506 0 3.012.006 4.517 0 .209 0 .267.098.261.284-.006.277 0 .56 0 .839 0 .44 0 .44-.428.44h-2.636c-.347 0-.4.057-.405.404-.006.365.011.735-.006 1.1-.012.278.11.388.376.388.33 0 .655.005.985.005.365.006.377.018.377.37 0 .898.005 1.795 0 2.692 0 .254.086.37.353.364.359-.012.712.006 1.071-.006.244-.011.325.087.313.324-.011.365 0 .735-.006 1.1-.005.22.093.312.313.312h6.4c.22 0 .319-.092.313-.312a44.543 44.543 0 0 1 0-1.244c.006-.226-.087-.313-.313-.307-.376.006-.753-.006-1.13.006-.208.006-.3-.075-.295-.29.006-.335.012-.677 0-1.012-.006-.226.087-.307.313-.307.377.012.753-.006 1.13.006.208.006.295-.087.295-.295a246.68 246.68 0 0 1 0-2.98c0-.238-.104-.33-.33-.324-.377.005-.753 0-1.13 0-.173 0-.272-.058-.272-.25.006-.937.006-1.868 0-2.806 0-.173.075-.243.243-.243.36.006.713.006 1.072 0 .214-.006.295.075.29.29-.012.335-.006.677 0 1.012 0 .417.023.434.451.434h.869c.411 0 .411 0 .411.423v2.633c0 .358.03.387.394.41.098.006.191.006.29.006.799 0 1.604.006 2.403-.006.243-.005.354.076.342.33-.017.29-.023.579 0 .868.023.301-.104.376-.388.37-.898-.017-1.796 0-2.693-.011-.26-.006-.36.087-.36.353.012.937.006 1.87.006 2.806 0 .417.024.434.446.44.88 0 1.755.006 2.636-.006.266-.005.359.093.347.353-.017.319-.006.637-.006.955.006.185-.08.26-.26.26-.33-.005-.655 0-.985 0-.452 0-.486.035-.486.498 0 .886-.006 1.777 0 2.662 0 .22-.076.313-.302.307a13.156 13.156 0 0 0-.955 0c-.22.006-.319-.07-.307-.301.011-.365-.006-.735.006-1.1.005-.248-.105-.347-.348-.335a27.63 27.63 0 0 1-1.187 0c-.232-.006-.336.087-.33.324.005.984.005 1.967 0 2.951 0 .214.08.324.307.318.996-.005 1.986-.005 2.982 0 .22 0 .313-.098.313-.312-.006-.376.006-.752 0-1.129-.006-.208.075-.3.29-.295.318.012.637.012.955 0 .232-.011.336.076.325.313-.012.359.006.712-.006 1.07-.012.267.104.36.365.353.388-.011.77-.011 1.158 0 .243.006.354-.086.348-.341-.012-.365.006-.735-.006-1.1-.006-.202.058-.306.278-.3.359.011.712.005 1.071 0 .186-.006.261.08.255.26-.006.376.006.752-.006 1.128-.005.243.087.348.342.348.973-.006 1.952-.006 2.925 0 .232 0 .336-.099.336-.33v-1.07c0-.446-.017-.464-.452-.464h-2.577c-.44 0-.44 0-.44-.451v-.84c0-.422-.018-.439-.44-.439-.887 0-1.779-.006-2.665 0-.237 0-.33-.08-.324-.318a13.12 13.12 0 0 0 0-.955c-.006-.208.081-.295.29-.295 1.465.006 2.936.006 4.401 0 .232 0 .307.098.301.318-.011.33-.005.654 0 .984.006.341.058.393.383.393.388.006.77-.005 1.158.006.267.006.365-.11.365-.359a227.85 227.85 0 0 1 0-2.864c0-.278-.122-.382-.388-.376-.36.011-.712-.006-1.072 0-.196.006-.283-.075-.278-.278.006-.335 0-.677 0-1.013 0-.37-.034-.399-.393-.405-.36 0-.713-.005-1.072 0-.203.006-.278-.08-.272-.277.006-.348.011-.695 0-1.042-.006-.214.075-.295.29-.29.359.012.712-.005 1.071.007.266.011.394-.087.382-.365-.011-.365 0-.735-.006-1.1 0-.364-.034-.399-.4-.399-.914 0-1.835-.006-2.75 0-.238 0-.33-.08-.319-.318.012-.29 0-.579 0-.868v-5.121c0-.452 0-.452.463-.452h.696c.44 0 .44 0 .44.429v2.604c0 .416.011.428.417.428.33 0 .654.006.984 0 .209-.006.296.075.296.29-.006.364 0 .734 0 1.099 0 .237.11.353.359.347.359-.006.712.006 1.071-.006.226-.006.313.087.301.307-.011.33-.005.654 0 .983 0 .406.035.44.452.44h4.402c.452 0 .48-.029.48-.474 0-.886.007-1.777-.005-2.662-.006-.255.087-.353.336-.33.122.012.249 0 .376 0 1.9 0 3.806.006 5.705-.006.261 0 .371.081.354.347-.018.267-.006.539-.006.81 0 .406 0 .411-.4.411-.898 0-1.795.006-2.693 0-.266 0-.388.099-.376.377.011.318.005.636.005.954 0 .567.006.573.585.573h2.433c.446 0 .446 0 .446.452v6.047c0 .347.04.387.376.387h2.81c.335 0 .399-.07.405-.41.006-.336.011-.678-.012-1.013-.011-.232.076-.313.301-.307.319.012.638.012.956 0 .232-.011.336.07.324.313-.011.358.006.711-.005 1.07-.006.249.098.353.341.347.365-.005.736.006 1.1 0 .21-.005.302.076.296.29-.011.33-.011.654 0 .983.012.232-.092.301-.313.295-.364-.011-.735.006-1.1-.005-.238-.006-.33.098-.324.33.005.376-.006.752.005 1.128.006.197-.07.278-.272.278-.915-.006-1.836-.006-2.75 0-.221 0-.285-.099-.279-.301.006-.376 0-.752 0-1.129 0-.202-.081-.306-.29-.306h-3.011c-.209 0-.296.092-.296.3.006.423.006.851 0 1.274-.005.214.093.295.296.289.376-.006.753.006 1.13-.006.22-.006.318.07.306.301a20.11 20.11 0 0 0 0 1.042c0 .37.023.393.394.393h3.967c1.344 0 2.682-.006 4.026.006.272 0 .388-.098.376-.37-.011-.33.012-.654-.006-.984-.017-.284.076-.405.377-.388.336.023.677-.006 1.013.006.25.006.354-.098.354-.341-.006-.36.011-.712-.006-1.07-.006-.232.07-.337.318-.325.36.012.713-.006 1.072.006.22.006.319-.087.313-.307-.006-.364.006-.735-.006-1.1-.006-.213.081-.294.29-.289.347.012.695.006 1.042 0 .197-.005.278.081.272.278-.006.359.006.712-.006 1.07-.005.244.076.36.33.348.406-.012.811-.012 1.217 0 .237.006.324-.099.318-.33-.011-.949-.011-1.921-.005-2.893zm-3.226-24.304c.19.006.382 0 .579 0 .133 0 .272.011.405 0 .284-.03.406.064.382.37-.023.318-.011.637-.005.95 0 .167-.076.248-.244.242h-1.123c-.174 0-.238-.087-.238-.254.006-.353.006-.712 0-1.065-.005-.174.07-.249.244-.243zm-.244 4.236c0-.776 0-.776.782-.77.191 0 .383.006.58 0 .167 0 .243.075.243.243-.006.353-.006.712 0 1.065.005.19-.087.254-.267.249-.185-.006-.365 0-.55 0-.788 0-.788 0-.788-.787zm-7.32-9.56c-.452-.006-.91 0-1.362 0-.446 0-.886-.006-1.332.006-.22.006-.318-.07-.313-.3.012-.33.006-.655 0-.985-.005-.19.07-.283.273-.277.915.005 1.836.005 2.75 0 .192 0 .285.063.279.266-.006.335-.012.677 0 1.012.011.209-.087.284-.296.278zM43.27 7.91c-.006-.804 0-.81.81-.804.864.006.742-.11.754.746 0 .174-.012.348 0 .521.017.232-.093.313-.307.295-.162-.011-.325 0-.493 0-.886-.011-.758.128-.764-.758zm-.967 11.244c.799 0 .799 0 .793.787 0 .775 0 .775-.782.775s-.782 0-.782-.775v-.03c0-.757 0-.757.77-.757zm-1.784-5.156h.087c.799 0 .805 0 .799.787-.006.885.11.77-.765.775-.84.006-.845 0-.84-.833.006-.833-.11-.723.719-.73zm-7.263-5.202c.29.017.579.017.869 0 .26-.018.359.08.353.347-.012.885-.006 1.77-.006 2.662 0 .428.035.457.463.463.336 0 .678.005 1.014 0 .185 0 .26.075.26.26a222.01 222.01 0 0 0 0 2.778c0 .185-.075.26-.26.26a214.68 214.68 0 0 0-2.78 0c-.238 0-.26-.133-.26-.318.005-1.024 0-2.043 0-3.067 0-1.013.005-2.025-.006-3.038-.006-.266.086-.365.353-.347zm-3.024 1.736c.174 0 .348.011.522 0 .231-.018.313.086.295.306-.011.162 0 .324 0 .492-.011.886.128.758-.759.764-.805.006-.81 0-.805-.81.006-.868-.116-.74.747-.752zm-1.673-1.73c.753 0 .753 0 .753.74v.087c0 .775 0 .775-.782.775s-.782 0-.782-.798c0-.805 0-.805.81-.805zm-1.773 1.73h.03c.764 0 .764 0 .758.763-.006.926.122.793-.788.799-.776.006-.776 0-.776-.781.006-.781.006-.781.776-.781zm-5.125 12.042c.758 0 .758 0 .758.763v.03c0 .804 0 .804-.805.804-.759 0-.759 0-.759-.77 0-.822 0-.822.806-.827zm-11.167-2.662c0-.764 0-.764.759-.764.799 0 .805 0 .799.81-.006.862.104.747-.747.747-.811.011-.811.005-.811-.793zm-.006 3.952c.012-.336.012-.677 0-1.013-.006-.196.07-.277.272-.277 1.495.005 2.989.005 4.483 0 .197 0 .278.08.278.277-.006.348-.006.695 0 1.042.006.214-.08.29-.29.29-.752-.007-1.505 0-2.258 0-.724 0-1.448-.007-2.172.005-.232-.006-.319-.087-.313-.324zm-1.732.758c0-.231.07-.336.313-.324.33.017.655.017.985 0 .249-.012.324.093.312.324-.011.33-.005.654-.005.984 0 .416.011.428.417.428h2.2c.742 0 1.483.006 2.23-.006.238-.006.33.081.319.318-.012.33-.006.654-.006.984 0 .405.023.434.423.434.347 0 .695.006 1.043 0 .196-.006.272.081.272.278-.006.914-.006 1.829 0 2.749 0 .196-.076.277-.272.272a20.873 20.873 0 0 0-1.043 0c-.209.005-.295-.07-.29-.284.012-.365-.005-.735.006-1.1.012-.266-.104-.358-.365-.352-.897.005-1.795-.006-2.693.005-.29.006-.4-.086-.382-.382.023-.324-.006-.653.006-.983.011-.278-.105-.382-.377-.376-.91.005-1.813-.006-2.722.005-.29.006-.388-.086-.382-.382.029-.856.023-1.724.011-2.592zm3.302 5.63v.434c0 .37-.012.382-.394.382h-.406c-.764 0-.764 0-.764-.758 0-.804 0-.804.81-.804.858 0 .742-.11.754.746zm-3.296 2.35c-.012-.365.006-.735-.006-1.1-.006-.22.064-.318.296-.312.347.011.695.011 1.042 0 .203-.006.272.08.272.272-.005.376.006.752-.005 1.128-.006.255.098.342.341.336.464-.012.927-.006 1.39-.006.464 0 .927.006 1.39 0 .22-.006.319.07.313.301a13.12 13.12 0 0 0 0 .955c.012.243-.098.318-.33.312-.84-.006-1.68-.006-2.52 0-.584 0-.584 0-.584.596 0 .278-.006.562 0 .84.005.202-.064.3-.278.294-.36-.011-.713-.005-1.072 0-.185 0-.26-.08-.255-.26.006-.359 0-.712 0-1.07 0-.348-.046-.394-.405-.4a29.592 29.592 0 0 0-1.014 0c-.197.006-.278-.08-.272-.278a28.45 28.45 0 0 0 0-1.012c-.006-.197.081-.278.278-.272.365.006.736-.006 1.1.006.238 0 .325-.099.32-.33zm3.296 4.571c.005.781 0 .781-.776.781h-.03c-.758 0-.758 0-.758-.763 0-.799 0-.805.788-.799.897.006.764-.121.776.781zM7.865 27.77c.77-.006.77 0 .77.758 0 .804 0 .804-.804.804-.875-.011-.753.116-.753-.77-.006-.92-.134-.78.787-.792zm-.799-7.87c0-.723.006-1.446 0-2.17-.006-.243.087-.324.324-.318.33.012.655.006.985 0 .185-.006.26.075.26.26a586.234 586.234 0 0 0 0 4.514c0 .185-.075.26-.26.26-.33-.005-.654-.011-.985 0-.237.012-.324-.08-.324-.318.006-.74 0-1.487 0-2.228zm-1.454 4.404c.336.006.678.006 1.014 0 .203-.006.272.08.272.278-.006.45 0 .908 0 1.36 0 .45-.006.908 0 1.36.006.202-.058.306-.278.3a19.73 19.73 0 0 0-1.013 0c-.203.006-.273-.087-.273-.278.006-.914.006-1.834 0-2.748 0-.203.087-.278.278-.272zM6.614 29.5c.215 0 .29.093.284.301-.006.463 0 .926 0 1.389 0 .434-.006.868 0 1.302.006.214-.058.324-.295.312-.336-.011-.672-.005-1.014 0-.185.006-.266-.075-.26-.26.005-.232 0-.463 0-.694-.006-.88.092-.776-.794-.782-.22 0-.446-.005-.666 0-.197.006-.278-.075-.278-.272a29.51 29.51 0 0 0 0-1.012c-.006-.191.07-.284.272-.284.921.006 1.836.006 2.751 0zM3.892 17.418c.33.011.655.006.985 0 .19-.006.29.058.284.266-.006.926-.006 1.852 0 2.777 0 .186-.087.26-.267.255a31.307 31.307 0 0 0-1.042 0c-.186 0-.255-.087-.255-.266.006-.463 0-.926 0-1.389 0-.445.006-.885-.006-1.33 0-.22.07-.325.301-.313zm-1.708 5.156c.886.011 1.772.011 2.658 0 .237 0 .336.075.324.318-.011.33-.011.654 0 .984.006.22-.075.318-.3.306-.36-.011-.713.006-1.072-.006-.238-.005-.325.087-.325.325.006.914-.005 1.828.006 2.742.006.284-.093.377-.365.36a10.527 10.527 0 0 0-.955 0c-.209.005-.29-.082-.29-.29.006-.752 0-1.505 0-2.257 0-.723.006-1.447-.006-2.17 0-.237.087-.318.325-.312zm1.285 9.976c0 .168-.075.249-.243.249H2.102c-.15 0-.231-.058-.231-.22v-1.152c0-.156.07-.231.226-.226h.608c.77 0 .77 0 .77.776-.006.185-.006.376-.006.573zm6.893 12.719c0 .347-.006.694 0 1.041.005.18-.064.266-.255.26-.927-.005-1.854-.005-2.78 0-.232 0-.267-.127-.267-.312.006-.897 0-1.794 0-2.69 0-.417-.046-.463-.469-.463-.347 0-.695-.006-1.042 0-.33.005-.394.063-.394.393-.006.885 0 1.777 0 2.662 0 .405-.006.41-.394.41-.851 0-1.697-.01-2.549.006-.283.006-.376-.098-.359-.37.018-.324.012-.654 0-.984-.005-.185.076-.26.261-.254.376.006.753-.012 1.13.006.266.011.359-.099.347-.36a18.565 18.565 0 0 1 0-1.156c.006-.267-.104-.36-.365-.353-.365.011-.736 0-1.1.005-.197.006-.278-.075-.273-.272.006-.33.012-.654 0-.983-.005-.22.07-.319.302-.307.364.011.735-.006 1.1.006.25.005.348-.104.342-.347-.012-.377 0-.753-.006-1.129 0-.353-.035-.388-.377-.388a33.07 33.07 0 0 0-1.071 0c-.214.006-.29-.08-.284-.289.006-.908.006-1.811 0-2.72 0-.214.081-.295.29-.289.365.006.735 0 1.1 0 .238.006.354-.093.348-.347-.012-.365.006-.735-.006-1.1-.006-.214.081-.295.29-.289.33.012.654.012.984 0 .209-.006.296.081.29.29-.006.347-.006.694 0 1.041.006.341.063.4.411.4.898.005 1.795.01 2.693-.007.272-.005.37.087.37.365a97.565 97.565 0 0 0 0 2.604c.007.249-.074.353-.33.336a7.253 7.253 0 0 0-.868 0c-.272.017-.388-.076-.37-.36.017-.306.005-.618.005-.925-.006-.417-.04-.451-.44-.451-.377 0-.753.005-1.13 0-.231-.006-.335.098-.335.33 0 .983.005 1.967 0 2.95 0 .244.11.319.335.319.765-.006 1.524 0 2.288 0 .753 0 1.506.006 2.26-.006.23-.006.335.075.323.318-.011.336-.005.677 0 1.013 0 .376.03.405.417.405.33 0 .655.006.985 0 .185-.006.29.058.29.266-.006.348-.006.695 0 1.042 0 .185-.081.26-.261.26-.336-.005-.678 0-1.014 0-.41-.005-.417.006-.422.423zm1.697 2.175v.058c0 .799 0 .799-.788.799-.776 0-.776 0-.776-.776 0-.827 0-.833.81-.821.864.006.742-.122.754.74zm.926-.873c-.758 0-.758 0-.758-.764 0-.833 0-.833.834-.833.73 0 .73 0 .73.734v.058c0 .805 0 .805-.806.805zm9.435 5.619c-.011.335-.006.677 0 1.012.006.185-.075.26-.26.255a214.68 214.68 0 0 0-2.78 0c-.209 0-.261-.104-.261-.29.006-.462 0-.925 0-1.388 0-.446.006-.886 0-1.331-.006-.209.075-.301.29-.295.33.011.654.011.984 0 .232-.006.301.104.296.318-.012.359 0 .712-.006 1.07-.006.243.11.353.353.348.36-.006.712.005 1.072 0 .214 0 .318.069.312.3zm1.385-9.08c-1.431-.011-2.856-.005-4.286-.005-.533 0-.533 0-.533.526 0 .347.005.694 0 1.042-.006.208.087.295.295.295.377-.006.753.006 1.13 0 .196-.006.272.08.272.278a222.01 222.01 0 0 0 0 2.777c0 .191-.064.284-.267.284a31.307 31.307 0 0 0-1.042 0c-.186.005-.26-.081-.255-.26.006-.388-.006-.77 0-1.158.006-.22-.093-.318-.313-.313-.336.006-.677 0-1.013 0-.412 0-.412 0-.412-.422 0-.318-.011-.636 0-.955.012-.26-.092-.358-.359-.358-.897.011-1.795.005-2.693.005-.365 0-.376-.011-.376-.37 0-.301.005-.596 0-.897-.006-.208.075-.3.29-.295.347.006.694-.006 1.042.006.255.005.376-.081.365-.353a20.251 20.251 0 0 1 0-1.187c.005-.254-.105-.335-.348-.33-.753.006-1.506.006-2.259.006-.741 0-1.488-.005-2.23.006-.254.006-.347-.08-.33-.335.018-.307.018-.62 0-.926-.017-.26.076-.353.348-.353.898.011 1.795.006 2.693.006.388 0 .429-.041.434-.429 0-.33.012-.654 0-.983-.011-.238.081-.324.319-.319.898.012 1.795.006 2.693.006.4 0 .417-.017.417-.4v-1.012c0-.434-.017-.445-.463-.451h-2.549c-.41 0-.41 0-.41-.428v-.753c0-.37.01-.382.399-.382h2.606c.394 0 .423-.029.423-.434 0-.347.006-.694 0-1.041-.006-.185.07-.26.255-.26.359.005.712.011 1.071 0 .22-.006.284.098.278.3-.006.376.006.753-.006 1.129-.005.22.087.312.307.312.417-.006.829-.006 1.246 0 .22.006.318-.092.312-.312-.005-.365.006-.735-.005-1.1-.006-.231.07-.335.312-.33.33.012.655.006.985 0 .174 0 .266.058.266.25-.005 1.515 0 3.026 0 4.542 0 .173-.086.237-.249.237-.388-.006-.77.006-1.158 0-.237-.006-.33.098-.324.33.006.405.006.81 0 1.215-.006.237.104.324.336.318.376-.005.753.006 1.13-.005.196-.006.277.08.271.277-.006.365.006.735-.006 1.1-.005.254.087.37.354.364.359-.011.712.006 1.071-.006.244-.011.325.087.313.325-.012.3-.017.596 0 .896.023.25-.081.33-.347.33zm1.308 1.73h-.028c-.806 0-.806 0-.806-.804 0-.758 0-.758.77-.758.835 0 .835 0 .835.804 0 .759 0 .759-.77.759zm3.939 3.46c-.463-.005-.927 0-1.384 0-.452 0-.904-.005-1.356.007-.208.005-.3-.07-.295-.284.012-.347.006-.694 0-1.041-.006-.186.052-.284.26-.284.927.006 1.848.006 2.775 0 .18 0 .266.064.266.255-.005.364-.005.729 0 1.093-.005.191-.087.26-.266.255zm.707-5.022c.335.006.671.006 1.007 0 .191-.006.284.07.278.266-.005.348-.005.689 0 1.036 0 .185-.075.266-.26.255-.174-.006-.348 0-.522 0h-.376c-.4 0-.411-.006-.411-.394 0-.295.006-.596 0-.89.006-.198.092-.279.284-.273zm2.733 12.042c.209-.006.296.075.29.29-.012.335-.006.676 0 1.012 0 .18-.07.266-.255.266-.927-.006-1.853 0-2.78 0-.18 0-.266-.08-.26-.26.005-.336.005-.677 0-1.013-.006-.208.08-.295.289-.29.452.007.91 0 1.361 0 .446-.005.904 0 1.355-.005zm.012-12.21c-.174-.005-.348 0-.521 0-.811 0-.811 0-.811-.804.006-.85-.099-.74.758-.752.192 0 .389.005.58 0 .202-.012.272.08.266.277a29.51 29.51 0 0 0 0 1.013c.006.191-.075.272-.272.266zm6.342.168c.828 0 .828 0 .828.81 0 .753 0 .753-.747.753h-.087c-.77 0-.77 0-.77-.782 0-.78 0-.78.776-.78zm2.525 4.826c-.011.185-.116.197-.249.197h-1.448c-.475 0-.944.006-1.419-.006-.237-.006-.33.087-.324.324.011.359-.006.712.006 1.07.005.226-.087.307-.307.302a13.157 13.157 0 0 0-.956 0c-.226.005-.307-.093-.301-.313.011-.347 0-.694 0-1.041 0-.238-.099-.353-.348-.348-.365.012-.735-.005-1.1.006-.214.006-.295-.08-.29-.29.012-.346.006-.694 0-1.04-.005-.198.076-.279.273-.273.364.006.735-.006 1.1.006.266.012.365-.11.36-.365-.007-.364.005-.734 0-1.099-.007-.197.08-.278.277-.272.336.006.678.006 1.014 0 .197-.006.278.07.278.272-.006.365.005.735-.006 1.1-.006.254.08.37.353.364.394-.012.794-.012 1.187 0 .261.012.336-.104.33-.347-.011-.376 0-.752-.005-1.129-.006-.185.075-.26.26-.26.348.006.695.012 1.043 0 .226-.006.313.087.307.307-.023.949.017 1.892-.035 2.835zm13.513-3.136c.22-.006.318.07.312.3-.011.336-.011.678 0 1.013.006.209-.063.295-.283.295-.904-.005-1.813-.005-2.717 0-.203 0-.301-.063-.295-.283.011-.347.011-.694 0-1.042-.006-.22.092-.283.295-.283.452.006.904 0 1.361 0 .44 0 .88.011 1.327 0zm7.205-19.854c0 .793 0 .793-.788.793-.174 0-.348-.006-.521 0-.203.005-.307-.064-.301-.284a37.81 37.81 0 0 0 0-1.065c-.006-.185.075-.26.26-.254.365.006.73.006 1.095 0 .191-.006.255.087.249.26 0 .185.006.37.006.55zm-4.761-7.696c.33.006.654.011.984 0 .22-.006.313.07.307.3-.011.36.012.712-.005 1.071-.012.278.11.376.376.37.377-.011.753-.011 1.13 0 .254.006.37-.086.364-.352-.011-.365.006-.735-.005-1.1-.006-.214.08-.29.29-.283.335.011.677.011 1.013 0 .226-.006.307.075.307.3-.012.741-.006 1.488-.006 2.228 0 .724-.006 1.447.006 2.17.005.255-.081.347-.336.336-.33-.017-.655-.012-.985 0-.208.006-.295-.075-.29-.29.012-.364-.005-.734.006-1.099.006-.243-.087-.353-.336-.347-.388.011-.77.011-1.158 0-.278-.006-.382.121-.37.388.011.358 0 .711.005 1.07.006.197-.075.284-.272.278a29.592 29.592 0 0 0-1.014 0c-.19.006-.278-.07-.278-.272.006-1.493.006-2.992 0-4.485-.005-.208.07-.29.267-.283zm3.023 6.504c0 .18-.07.26-.255.26a30.96 30.96 0 0 0-1.036 0c-.203.006-.278-.087-.273-.277.006-.186 0-.365 0-.55 0-.776 0-.776.776-.776.174 0 .348.006.522 0 .173-.005.272.058.266.25a34.42 34.42 0 0 0 0 1.093zm-3.006.382c.33.011.655.011.985 0 .208-.006.295.07.295.283-.011.376.006.753-.006 1.129-.005.237.099.33.33.324.377-.006.753.006 1.13-.006.191-.006.284.07.278.272-.006.347-.006.694 0 1.042 0 .185-.087.254-.267.254-.926-.006-1.853-.006-2.774 0-.185 0-.26-.087-.255-.266.006-.463 0-.926 0-1.389 0-.451.006-.903-.005-1.36-.006-.208.08-.289.29-.283zm-2.021-.932c0-.798 0-.798.782-.798s.782 0 .782.775c0 .827 0 .827-.817.827-.747 0-.747 0-.747-.746v-.058zm-1.738 4.653c0-.186.081-.255.26-.255.464.006.928 0 1.39 0 .447 0 .887.006 1.333-.006.214-.006.324.064.319.295-.012.33-.012.654 0 .984.005.214-.093.29-.296.284-.359-.006-.712.005-1.071-.006-.232-.006-.33.092-.33.33.005.416.005.827 0 1.244-.006.208.086.295.295.295.365-.006.736.006 1.1-.006.232-.006.307.087.302.307-.012.335-.006.677 0 1.012.005.186-.058.284-.267.284a214.68 214.68 0 0 0-2.78 0c-.185 0-.255-.081-.255-.26a563 563 0 0 0 0-4.502zm-1.691 8.697c-.012-.255.093-.336.342-.336 1.43.006 2.855.006 4.286.006.533 0 .538-.006.538-.527 0-.868.006-1.736-.005-2.604-.006-.248.075-.353.33-.335.295.017.596.017.897 0 .25-.012.354.07.342.33-.017.358.006.711-.006 1.07-.005.249.105.347.348.342.365-.012.735.005 1.1-.006.209-.006.302.075.29.29a13.12 13.12 0 0 0 0 .954c.012.231-.07.336-.313.324-.33-.012-.654-.006-.984 0-.394 0-.435.04-.435.428 0 .307-.017.62.006.926.017.284-.075.394-.377.388-.996-.018-1.986-.006-2.982-.006-1.002 0-2.01-.006-3.012.006-.278.006-.382-.093-.365-.37.017-.301.012-.59 0-.88zm-8.63 2.586c.018-.318.012-.636.006-.954-.006-.197.081-.278.278-.272.365.006.736-.006 1.1.006.238.005.33-.093.325-.325-.012-.358.006-.711-.006-1.07-.006-.232.087-.301.307-.301.741.006 1.483.006 2.23.006.724 0 1.448.006 2.172-.006.231 0 .336.075.324.318a9.584 9.584 0 0 0 0 .897c.012.26-.07.37-.347.353-.325-.017-.655.006-.985-.006-.272-.011-.377.087-.377.365.012.897.006 1.794.006 2.69 0 .406-.006.412-.4.412-.277 0-.561-.018-.84.005-.3.024-.387-.098-.37-.382.023-.324-.006-.653.006-.983.012-.272-.087-.376-.365-.37-.898.011-1.795-.006-2.693.011-.29-.006-.388-.104-.37-.394zm6.73 6.985c.006.22-.092.283-.3.283-.453-.005-.91 0-1.362 0-.434 0-.869-.011-1.303.006-.272.012-.353-.092-.342-.353.018-.353 0-.711.006-1.07.006-.22-.087-.318-.307-.313-.417.006-.828.006-1.245 0-.22-.005-.313.093-.313.313.006.364-.006.735.006 1.1.006.23-.064.335-.313.323a10.527 10.527 0 0 0-.956 0c-.202.006-.3-.058-.3-.277.005-.915.005-1.83 0-2.75 0-.196.086-.277.277-.271.348.006.695-.012 1.043.006.272.011.388-.093.376-.37-.011-.36.006-.712-.006-1.071-.005-.203.058-.307.278-.295.348.011.695.011 1.043 0 .214-.006.29.087.284.295-.012.376.006.752-.006 1.128-.006.22.093.318.313.313.347-.006.695.017 1.042-.006.284-.017.406.07.388.37-.023.319.006.637-.011.955-.012.272.08.388.365.376.347-.017.695.006 1.042-.006.209-.005.301.07.296.284-.006.336-.006.683.005 1.03zm-.231-3.183a31.307 31.307 0 0 0-1.043 0c-.208.006-.301-.07-.295-.283.011-.33.011-.654 0-.984-.012-.231.098-.3.312-.295.365.011.736-.006 1.1.006.238.005.331-.099.325-.33-.006-.376.006-.752-.006-1.129-.005-.196.076-.277.273-.277.336.006.677.011 1.013 0 .22-.006.278.098.278.3-.006.741 0 1.488 0 2.228 0 .724-.006 1.447.006 2.17.006.255-.087.348-.336.336a10.527 10.527 0 0 0-.956 0c-.196.006-.278-.075-.278-.272a32.98 32.98 0 0 0 0-1.07c0-.342-.057-.4-.393-.4zm5.114 12.083c-.742-.012-1.483-.006-2.23-.006-.724 0-1.448-.006-2.172.006-.232.006-.324-.075-.324-.318.005-1.465.005-2.929 0-4.393 0-.237.08-.324.318-.324 1.466.006 2.93.006 4.396 0 .238 0 .319.081.319.319a555.089 555.089 0 0 0 0 4.392c.011.243-.064.33-.307.324zm3.434 5.156a13.156 13.156 0 0 0-.955 0c-.203.005-.301-.058-.301-.278.005-.914.005-1.834 0-2.749 0-.202.086-.272.278-.272.336.006.677.006 1.013 0 .203-.006.272.087.272.278-.005.451 0 .909 0 1.36 0 .445-.005.885.006 1.33 0 .232-.07.342-.313.33zm2.04-4.27c0 .803 0 .81-.806.803-.863-.005-.747.11-.753-.746 0-.185.006-.365 0-.55-.006-.196.087-.272.278-.272.336.006.672.006 1.008 0 .191-.006.29.07.278.266-.012.168-.006.33-.006.498zm0-4.607c.005.185-.082.255-.262.255-.376-.006-.752.005-1.129-.006-.243-.006-.353.087-.347.341.011.469 0 .943 0 1.418 0 .463-.012.926.005 1.389.006.254-.092.341-.341.33-.325-.018-.655-.006-.985-.006-.168 0-.243-.075-.243-.243v-4.537c0-.168.07-.249.243-.249h2.803c.191 0 .255.093.25.266.005.348 0 .695.005 1.042z"/><path d="M52.156 12.262h11.346c.428 0 .446-.018.446-.44V.48c0-.416-.018-.44-.446-.44H52.156c-.406 0-.435.024-.435.423v11.365c.006.41.035.434.435.434zm1.43-9.988c0-.272.076-.37.36-.364 2.594.011 5.189.011 7.79 0 .283 0 .358.092.358.364-.005 2.587-.005 5.168 0 7.754 0 .29-.08.388-.376.382-1.292-.011-2.589-.006-3.88-.006-1.292 0-2.59-.005-3.881.006-.295.006-.377-.092-.377-.382.012-2.586.012-5.173.006-7.754zM11.804 51.727H.429c-.394 0-.423.023-.423.434v11.336c0 .422.017.445.44.445h11.323c.446 0 .463-.017.463-.445V52.16c-.005-.411-.029-.434-.428-.434zm-1.442 9.97c0 .382 0 .382-.388.382H2.27c-.405 0-.405 0-.405-.4v-3.848c0-1.29.006-2.586-.006-3.877-.006-.295.099-.376.382-.376 2.578.012 5.155.006 7.733.006.388 0 .388 0 .388.382.005 2.58 0 5.156 0 7.73zM.458 12.262H11.78c.434 0 .451-.018.451-.463V.492c0-.423-.017-.446-.44-.446H.446c-.417 0-.44.023-.44.446v11.307c0 .445.017.463.452.463zM2.218 1.91c2.595.005 5.19.005 7.79 0 .278 0 .371.08.365.358-.011 1.302-.006 2.604-.006 3.906 0 1.285-.005 2.564.006 3.848 0 .278-.063.388-.37.388a919.46 919.46 0 0 0-7.79 0c-.261 0-.354-.08-.354-.347.006-2.604.006-5.208 0-7.812 0-.272.099-.341.36-.341zm44.476 53.103c-.006-.422-.006-.85 0-1.273 0-.19-.081-.283-.278-.283-.423.006-.851.006-1.274 0-.22-.006-.319.092-.313.312.006.347-.012.695.006 1.042.017.283-.07.388-.37.388a268.133 268.133 0 0 0-4.316 0c-.255 0-.37-.07-.353-.342.017-.353 0-.712.006-1.07.005-.238-.099-.324-.33-.324-.985.005-1.97.005-2.954 0-.22 0-.319.086-.319.306.006.388 0 .77 0 1.158 0 .358.035.393.4.393.915 0 1.836.006 2.75 0 .21 0 .32.052.32.29-.012.908-.006 1.81 0 2.72 0 .207-.076.294-.29.288-.365-.011-.736.006-1.1-.005-.244-.006-.36.08-.348.335.011.405.011.81 0 1.215-.006.244.104.325.33.319.365-.012.736.006 1.1-.006.22-.006.319.07.307.3-.011.336-.011.678 0 1.014.012.231-.092.3-.307.295-.376-.012-.752 0-1.129-.006-.203-.006-.301.075-.301.29.006.422.006.85 0 1.272 0 .203.08.301.295.301.423-.006.852-.006 1.274 0 .209 0 .302-.092.296-.3-.006-.365.011-.736-.006-1.1-.012-.25.07-.353.33-.342.36.018.713-.005 1.072.006.249.006.347-.098.341-.347a20.251 20.251 0 0 1 0-1.186c.006-.255-.11-.342-.353-.336-.365.012-.735-.006-1.1.006-.215.006-.296-.081-.29-.29.012-.33.012-.653 0-.983-.006-.209.075-.295.29-.29.365.006.735 0 1.1 0 .243 0 .353-.11.348-.353-.006-.358.005-.711-.006-1.07-.006-.214.064-.324.295-.313.33.012.655.012.985 0 .214-.005.301.087.284.296-.006.098 0 .19 0 .289v5.902c0 .37.034.4.393.405h1.014c.452 0 .458-.005.458-.445v-3.877c0-1.32.005-2.645-.006-3.964 0-.243.07-.353.33-.342.365.018.735 0 1.1.006.238.012.325-.08.319-.3zm-24.464 3.6a624.56 624.56 0 0 1-4.658 0c-.22 0-.318.08-.312.306.006.388-.006.77.006 1.158.005.196-.07.277-.273.277-.376-.005-.753.006-1.13-.005-.248-.006-.34.104-.34.347.005.96.01 1.927 0 2.887-.007.284.12.365.381.365.765-.012 1.524-.006 2.288-.006h2.23c.417 0 .434-.023.434-.445 0-.886.012-1.771-.005-2.662-.006-.284.092-.376.37-.36.336.018.678-.005 1.014.007.237.006.324-.099.318-.33-.011-.405-.011-.81 0-1.215.006-.238-.092-.324-.324-.324zM14.132 3.646c.48-.012.967 0 1.448 0 .48 0 .967-.006 1.448.005.255.006.37-.08.365-.347a120.45 120.45 0 0 1 0-2.893c0-.26-.099-.359-.36-.359-.966.006-1.928.006-2.895 0-.243 0-.353.081-.353.336.005.972.005 1.944 0 2.922 0 .243.098.341.347.336zm8.613 1.73c.365-.006.735.006 1.1-.006.22-.006.319.07.307.3-.012.365.006.736-.006 1.1-.006.226.076.342.319.336.405-.006.81-.006 1.216 0 .226 0 .336-.093.33-.33-.006-.405-.011-.81 0-1.215.006-.266-.116-.365-.365-.359-.365.006-.735-.006-1.1 0-.197.006-.278-.08-.272-.278.005-.33.011-.653 0-.983-.006-.226.075-.313.3-.307.366.012.736-.006 1.101.006.25.006.348-.104.336-.347-.011-.191 0-.388 0-.58 0-.202-.006-.404 0-.607.012-.231-.08-.335-.324-.33-.417.006-.828.012-1.245 0-.232-.005-.302.105-.302.319.006.376-.005.752.006 1.128.006.214-.075.295-.29.29-.387-.012-.77 0-1.158-.006-.208-.006-.295.092-.29.295.006.416.006.827 0 1.244.006.243.105.336.337.33zm40.879 56.703c-.499.006-1.002 0-1.5 0h-1.472c-.185 0-.295.052-.295.26.006.44 0 .886 0 1.325 0 .197.104.272.29.272h3.005c.226 0 .302-.11.302-.324a42.09 42.09 0 0 1 0-1.21c0-.23-.093-.329-.33-.323zM46.352 29.332c-.394.012-.787.012-1.187 0-.255-.005-.336.105-.336.348.006.972.006 1.944 0 2.916 0 .226.081.336.324.336a44.25 44.25 0 0 1 1.24 0c.226.005.307-.099.3-.313-.005-.492 0-.984 0-1.47s-.005-.983 0-1.47c.007-.26-.098-.352-.34-.347zM18.991 1.852c0 .492.006.983 0 1.475-.005.238.093.33.33.319.389-.012.77-.012 1.159 0 .272.011.388-.099.382-.37-.006-.967-.006-1.928 0-2.894 0-.255-.11-.341-.353-.336-.388.012-.77.012-1.158 0-.261-.005-.371.093-.365.353.011.486.005.967.005 1.453zm-1.413 17.302c.406-.006.811-.006 1.217 0 .237.005.33-.093.324-.33-.006-.492 0-.984 0-1.476s-.006-.983 0-1.475c0-.214-.081-.319-.307-.319-.417.006-.828.006-1.245 0-.22-.005-.313.093-.313.313.006.984.006 1.967 0 2.951 0 .232.087.341.324.336zm17.411 3.426c.359.005.712-.006 1.071 0 .22.005.319-.093.313-.313-.006-.405-.006-.81 0-1.215 0-.25-.128-.342-.36-.336-.387.006-.77 0-1.158 0-.324.006-.382.064-.388.4a32.98 32.98 0 0 0 0 1.07c0 .18-.07.266-.255.266-.202-.006-.405 0-.608 0-.932.017-.822-.156-.828.897 0 .197.093.278.284.272.203-.006.405 0 .608 0h.29c.695-.006.695.07.677-.665-.005-.272.099-.382.354-.377zm7.941 10.213c-.366.006-.736 0-1.101 0-.388 0-.77.006-1.159 0-.22-.006-.312.092-.307.312.006.417.006.828 0 1.244 0 .22.087.319.313.319.753-.006 1.506-.006 2.259-.006.232 0 .336-.104.336-.336 0-.405-.006-.81 0-1.215.006-.243-.116-.324-.342-.318zM15.655 58.491c-.005-.22 0-.445 0-.665v-.666c0-.173-.075-.278-.254-.278-.435 0-.87 0-1.298.006-.191 0-.307.087-.307.295.006.434 0 .868 0 1.302 0 .186.093.29.284.295.434.006.869 0 1.297 0 .186-.005.278-.098.278-.289zM11.972 13.83H10.64c-.174 0-.278.075-.278.255v1.354c0 .168.08.249.249.249h1.355c.162 0 .249-.087.249-.25v-1.353c.012-.174-.081-.255-.243-.255zm10.315 3.46c-.434 0-.869.006-1.303 0-.209 0-.301.099-.301.301v1.302c0 .18.092.26.272.26h1.332c.18 0 .266-.086.26-.265v-1.331c.006-.174-.075-.267-.26-.267zM53.32 51.727c-.435.005-.863.005-1.298 0-.208 0-.295.098-.295.3.006.434 0 .863 0 1.297 0 .18.081.266.26.26.22-.006.44 0 .667 0 .22 0 .44-.006.666 0 .197.006.278-.087.272-.283a48.35 48.35 0 0 1 0-1.297c0-.185-.075-.277-.272-.277z"/><path d="M55.19 8.425c0 .348.03.37.389.37h4.517c.36 0 .388-.028.388-.37 0-1.516-.005-3.026.006-4.542 0-.266-.075-.382-.359-.376-1.523.011-3.046.011-4.576 0-.283 0-.364.11-.364.376.005 1.516 0 3.032 0 4.542zM8.375 55.193H3.886c-.4 0-.417.017-.417.399v4.485c0 .376.023.399.388.399h4.518c.36 0 .388-.023.388-.37v-4.543c0-.347-.029-.37-.388-.37zM3.828 8.801c1.524-.005 3.047-.011 4.576 0 .284 0 .365-.11.365-.376-.006-1.516-.006-3.026-.006-4.542 0-.347-.029-.37-.388-.37H3.857c-.359 0-.388.023-.388.37 0 1.522.006 3.044-.005 4.571 0 .272.11.353.364.347z"/></g></g><path fill="#009A61" d="M22 22h20v20H22z"/><path d="M24.997 37.54l.787-1.406c.6.544 0 0 0 0 .6.544 1.463 1.032 2.288 1.032.6 0 1.275-.263 1.275-.975 0-.788-.919-.92-1.95-1.37-1.163-.505-2.138-1.124-2.138-2.605 0-1.932 1.557-2.757 3.488-2.757 1.05 0 2.175.244 2.981.77v.224l-.75 1.481a3.395 3.395 0 0 0-2.025-.656c-.694 0-1.125.281-1.125.825 0 .713.825.863 1.856 1.256 1.425.544 2.288 1.144 2.288 2.663 0 1.987-1.556 2.85-3.619 2.85-1.312 0-2.362-.356-3.356-1.106v-.225zm11.7 1.088h-2.663c0-.187 0 0 0 0 0-.187.038-5.287.057-7.05-.507.019-1.032.019-1.182.019l.02-1.894c.15 0 .655 0 1.143.019 0-.075-.038-1.631-.038-1.688 0-2.118 1.238-2.906 2.85-2.906a5.39 5.39 0 0 1 2.12.413v.28l-.545 1.5a1.972 1.972 0 0 0-.937-.262c-.525 0-.863.263-.863 1.257 0 .337.02 1.33.02 1.406.562-.019 1.63-.019 1.78-.019l-.018 1.894c-.15 0-1.22 0-1.782-.019.038 1.763.038 6.863.038 7.05z" fill="#FFF"/></g></svg>